HIERARCHY
ROOT Hips
{
	OFFSET -0.179506 -22.333345 2.821913
	CHANNELS 6 Xposition Yposition Zposition Zrotation Yrotation Xrotation 
	JOINT LeftUpLeg
	{
		OFFSET 6.951974 -9.140623 -0.681533
		CHANNELS 3 Zrotation Yrotation Xrotation
		JOINT LeftLeg
		{
			OFFSET 3.427654 -37.519855 -0.449580
			CHANNELS 3 Zrotation Yrotation Xrotation
			JOINT LeftFoot
			{
				OFFSET -1.359570 -39.796059 -4.369333
				CHANNELS 3 Zrotation Yrotation Xrotation
				JOINT LeftToe
				{
					OFFSET 2.635814 -5.579078 11.928840
					CHANNELS 3 Zrotation Yrotation Xrotation
					End Site
					{
						OFFSET 0.000000 0.000000 0.000000
					}
				}
			}
		}
	}
	JOINT RightUpLeg
	{
		OFFSET -6.767048 -9.052170 -0.431982
		CHANNELS 3 Zrotation Yrotation Xrotation
		JOINT RightLeg
		{
			OFFSET -3.829005 -38.256897 -0.885003
			CHANNELS 3 Zrotation Yrotation Xrotation
			JOINT RightFoot
			{
				OFFSET 1.577377 -39.841461 -4.231180
				CHANNELS 3 Zrotation Yrotation Xrotation
				JOINT RightToe
				{
					OFFSET -2.537174 -4.814398 12.334795
					CHANNELS 3 Zrotation Yrotation Xrotation
					End Site
					{
						OFFSET 0.000000 0.000000 0.000000
					}
				}
			}
		}
	}
	JOINT Spine
	{
		OFFSET -0.253288 10.896323 -2.669631
		CHANNELS 3 Zrotation Yrotation Xrotation
		JOINT Spine1
		{
			OFFSET 0.548704 13.518043 0.109247
			CHANNELS 3 Zrotation Yrotation Xrotation
			JOINT Spine2
			{
				OFFSET 0.145701 5.292222 2.542457
				CHANNELS 3 Zrotation Yrotation Xrotation
				JOINT Neck
				{
					OFFSET -0.277840 21.387037 -4.285703
					CHANNELS 3 Zrotation Yrotation Xrotation
					JOINT Head
					{
						OFFSET 0.515184 6.496960 5.134897
						CHANNELS 3 Zrotation Yrotation Xrotation
						End Site
						{
							OFFSET 0.000000 0.000000 0.000000
						}
					}
				}
				JOINT LeftShoulder
				{
					OFFSET 7.884473 12.174932 -3.408961
					CHANNELS 3 Zrotation Yrotation Xrotation
					JOINT LeftArm
					{
						OFFSET 9.097692 3.046888 -0.886815
						CHANNELS 3 Zrotation Yrotation Xrotation
						JOINT LeftForeArm
						{
							OFFSET 25.961220 -1.277207 -2.745643
							CHANNELS 3 Zrotation Yrotation Xrotation
							JOINT LeftHand
							{
								OFFSET 24.923361 0.898606 -0.117091
								CHANNELS 3 Zrotation Yrotation Xrotation
								End Site
								{
									OFFSET 0.000000 0.000000 0.000000
								}
							}
						}
					}
				}
				JOINT RightShoulder
				{
					OFFSET -8.175920 11.883285 -3.861528
					CHANNELS 3 Zrotation Yrotation Xrotation
					JOINT RightArm
					{
						OFFSET -9.601238 3.255117 -0.914307
						CHANNELS 3 Zrotation Yrotation Xrotation
						JOINT RightForeArm
						{
							OFFSET -25.374195 -1.332924 -2.140099
							CHANNELS 3 Zrotation Yrotation Xrotation
							JOINT RightHand
							{
								OFFSET -25.529810 0.777228 -0.555919
								CHANNELS 3 Zrotation Yrotation Xrotation
								End Site
								{
									OFFSET 0.000000 0.000000 0.000000
								}
							}
						}
					}
				}
			}
		}
	}
}
MOTION
Frames: 12
Frame Time: 0.033333
-11.495538 -19.485229 89.293167 -123.012783 2.324718 83.775092 15.517392 5.098323 -6.532660 -7.221447 -1.845894 30.935970 1.759140 10.785018 -28.630835 nan nan nan -15.643727 -11.249340 -12.903841 2.797955 -10.443400 24.670687 3.618287 -6.136430 -11.651043 nan nan nan -6.562663 2.030862 3.957510 7.176118 -6.848708 13.519314 1.120206 -0.443768 -6.529355 2.294230 -20.103429 18.003100 6.993889 -14.962240 19.939822 -18.924019 -11.854200 6.437576 -63.035123 -47.564400 31.209097 141.628648 -72.760405 -111.612149 -0.192483 -15.618579 -2.858450 17.317450 5.854205 -2.071967 33.079495 20.736972 -7.334243 -98.823735 51.159240 -82.598359 -4.281682 6.837364 -12.322894 
-11.486607 -19.519224 89.325432 -122.982868 2.357403 83.892045 15.510005 5.117143 -6.633830 -7.164660 -1.808549 30.880835 1.776077 10.807741 -28.714361 nan nan nan -15.560780 -11.254861 -13.039368 2.751963 -10.527092 24.646633 3.623123 -6.133444 -11.604962 nan nan nan -6.556098 1.978778 3.886402 7.198821 -6.876406 13.440745 1.143430 -0.440765 -6.571799 2.232133 -20.037986 18.115141 7.044126 -14.868043 19.818327 -18.989755 -11.865299 6.421829 -62.810245 -47.464883 31.051273 141.893033 -72.770021 -111.993520 -0.070440 -15.652845 -2.822486 17.339155 5.905734 -2.017652 32.965703 20.663093 -7.390350 -98.728975 51.228263 -82.639466 -4.405662 6.929778 -12.363307 
-11.495350 -19.522919 89.329903 -122.982234 2.364698 83.902682 15.517569 5.126562 -6.637026 -7.165108 -1.821526 30.874222 1.779376 10.817004 -28.712281 nan nan nan -15.548921 -11.259360 -13.039277 2.749904 -10.523674 24.640020 3.621388 -6.154313 -11.609456 nan nan nan -6.556469 1.974870 3.885918 7.207579 -6.888903 13.437725 1.157147 -0.445995 -6.570585 2.228099 -20.024795 18.121611 7.049486 -14.852487 19.799097 -18.982834 -11.906803 6.422139 -62.670941 -47.455539 30.948436 142.046201 -72.759046 -112.142135 0.011023 -15.610913 -2.819132 17.337711 5.941597 -2.011982 32.937620 20.638394 -7.405757 -98.728309 51.242511 -82.673181 -4.465175 6.924430 -12.411491 
-11.505029 -19.516195 89.385910 -123.013962 2.541472 83.928370 15.729083 5.353470 -6.639468 -7.265065 -2.042241 30.913303 1.872734 10.806351 -28.637723 nan nan nan -15.265800 -11.223148 -12.957426 2.770152 -10.382370 24.450227 3.471322 -6.468495 -11.731069 nan nan nan -6.603275 2.194819 3.890438 7.295281 -7.045546 13.656749 1.543743 -0.564689 -6.888425 2.108787 -19.898472 18.382431 7.243775 -14.744106 19.379814 -19.140869 -13.560883 6.499475 -61.402371 -46.553112 29.590047 142.619994 -71.623409 -111.739844 -1.028313 -14.992848 -2.599630 17.301099 6.747568 -2.130165 32.494135 19.567028 -7.841393 -99.120390 51.173293 -82.601665 -3.283307 6.521490 -11.851345 
-11.432541 -19.519831 89.424416 -122.942646 2.625561 84.143658 15.825619 5.344496 -6.969154 -7.270739 -1.965821 31.047481 1.788550 10.711187 -28.625177 nan nan nan -15.040340 -11.114077 -13.211482 2.621461 -10.484167 24.534306 3.443993 -6.477343 -11.728881 nan nan nan -6.588668 2.127435 3.783949 7.345521 -6.942579 13.495283 1.505138 -0.487653 -6.904244 2.035270 -19.875918 18.492609 7.439899 -14.765865 19.277246 -19.286107 -13.036143 6.542733 -61.924408 -46.878094 30.197183 142.252241 -71.828789 -111.725980 -1.451164 -15.165275 -2.557493 17.313498 6.313462 -2.044421 32.565875 19.695847 -7.793879 -99.117371 51.208910 -82.409489 -3.080778 6.522747 -11.777899 
-11.402349 -19.497244 89.440758 -122.925869 2.784522 84.096781 16.087417 5.484105 -6.965542 -7.548980 -2.244580 31.145991 1.731666 10.820745 -28.431216 nan nan nan -14.805078 -11.000841 -13.099704 2.690443 -10.136699 24.531275 3.094701 -6.633287 -11.909504 nan nan nan -6.916171 2.569660 3.862208 7.719681 -6.810134 14.319952 1.918991 -0.655349 -7.739617 2.275182 -19.817505 18.149453 7.577493 -14.961241 18.725813 -18.990347 -13.583282 6.711581 -62.146571 -46.995368 30.152472 142.021865 -71.622920 -111.137681 -1.822923 -15.296161 -2.722671 16.931302 6.015160 -2.483975 32.448845 19.207501 -7.742966 -99.122389 51.301475 -81.866089 -2.705185 6.290464 -12.048351 
-11.424724 -19.513409 89.447205 -122.945439 2.736569 84.053933 16.018310 5.436814 -6.866400 -7.629556 -2.272851 31.123835 1.615112 10.898819 -28.324886 nan nan nan -14.899333 -10.944389 -12.988653 2.784760 -9.867045 24.521010 3.026062 -6.573056 -11.956808 nan nan nan -6.906329 2.693023 3.774159 7.680472 -6.747921 14.603990 1.901484 -0.725272 -7.844161 2.283938 -19.736795 18.043343 7.678001 -14.907253 18.622074 -18.977534 -13.737802 6.726173 -61.944042 -47.105395 30.041077 141.953940 -71.578760 -111.066699 -1.846058 -15.276224 -2.742312 16.866700 5.952518 -2.525592 32.474513 19.107534 -7.731831 -99.137181 51.288280 -81.678225 -2.664562 6.205543 -11.827291 
-11.451175 -19.537167 89.442108 -122.962717 2.666645 84.035233 15.921962 5.402918 -6.770762 -7.622648 -2.258763 31.012687 1.534333 10.843666 -28.327785 nan nan nan -15.013959 -10.997468 -12.970032 2.819687 -9.857650 24.539494 3.023611 -6.526839 -11.951507 nan nan nan -6.879926 2.695585 3.784693 7.615025 -6.719389 14.582537 1.856268 -0.722349 -7.791608 2.254474 -19.726455 17.991495 7.674359 -14.928648 18.673135 -18.912212 -13.726931 6.704111 -62.173400 -47.068267 30.120959 141.874621 -71.532224 -110.919490 -1.972711 -15.334364 -2.678136 16.850183 5.923354 -2.493504 32.499798 19.135818 -7.764045 -99.111917 51.273512 -81.541598 -2.600896 6.195606 -11.500170 
-11.438748 -19.534355 89.458450 -122.922642 2.659309 84.224594 15.902870 5.432676 -6.971448 -7.514816 -2.131450 30.979697 1.402130 10.573897 -28.375718 nan nan nan -14.958653 -11.081845 -13.233697 2.730329 -10.116442 24.619113 3.158014 -6.539117 -11.873497 nan nan nan -6.663850 2.182169 4.362044 7.407757 -6.875994 13.177356 1.599550 -0.374959 -7.435855 2.070493 -19.520440 18.326002 7.717282 -14.840135 18.894326 -18.657087 -12.890135 6.498830 -63.132152 -46.694528 30.710578 142.233963 -71.666927 -110.949354 -2.077549 -15.661721 -3.009762 16.998455 5.677032 -2.108003 32.829170 19.577929 -7.586717 -99.043779 51.388527 -81.169210 -2.450165 6.325977 -11.386368 
-11.410508 -19.548862 89.460678 -122.911494 2.744432 84.181643 16.026858 5.388904 -6.912284 -7.623373 -2.229559 30.893832 1.412724 10.721657 -28.337918 nan nan nan -14.876353 -11.050437 -13.221473 2.730216 -10.299676 24.624805 3.014956 -6.570912 -11.870679 nan nan nan -6.916743 2.613185 3.753391 7.704410 -6.664329 14.346461 1.956856 -0.737376 -7.689768 2.306242 -19.653198 17.911004 7.477710 -15.076057 18.729675 -18.751555 -13.524675 6.576879 -63.323311 -46.807349 30.655430 141.263963 -71.613242 -110.190147 -2.363164 -15.798055 -2.512564 16.763293 5.923901 -2.541044 32.533369 19.131447 -7.701173 -98.928476 51.238461 -81.269125 -2.456105 6.433844 -11.612557 
-11.402169 -19.555702 89.467453 -122.925732 2.744411 84.213213 16.031463 5.381798 -6.915548 -7.628457 -2.186012 30.832419 1.416029 10.690197 -28.321966 nan nan nan -14.862269 -11.036267 -13.291837 2.710553 -10.339788 24.638924 3.041776 -6.525092 -11.926827 nan nan nan -6.929540 2.615042 3.733057 7.724660 -6.631535 14.324763 1.973892 -0.766463 -7.695934 2.322638 -19.623582 17.905004 7.421655 -15.122023 18.753302 -18.700543 -13.496012 6.536516 -63.496801 -46.791156 30.753480 140.940772 -71.641890 -109.883319 -2.492795 -15.926542 -2.341836 16.761482 5.906835 -2.602254 32.573510 19.178176 -7.652785 -98.836294 51.255763 -81.122948 -2.378347 6.455922 -11.486182 
-11.383225 -19.551481 89.476021 -122.902178 2.725901 84.271321 16.009164 5.386163 -6.995396 -7.593182 -2.088158 30.839671 1.395573 10.556921 -28.300135 nan nan nan -14.854331 -11.019602 -13.360719 2.666289 -10.345471 24.616121 3.083452 -6.451361 -11.996779 nan nan nan -6.853423 2.420143 3.869819 7.628040 -6.734158 14.019238 1.842052 -0.624534 -7.644657 2.299820 -19.473193 18.028054 7.441825 -15.126018 18.749103 -18.539874 -13.194548 6.450435 -63.587759 -46.766647 30.835498 140.905929 -71.744252 -109.862816 -2.474735 -16.089967 -2.476976 16.848873 5.852761 -2.458017 32.753342 19.440115 -7.564596 -98.742531 51.257211 -80.948722 -2.398210 6.526372 -11.399812 
